# xmcd
# 
# Track frame offsets:
#     150
#     19097
#     36617
#     52810
# 
# Disc length: 981
# 
# Revision: 0
# Processed by: cddbd v1.5.2PL0 Copyright (c) Steve Scherf et al.
# Submitted via: fre:ac v1.0.17
# 
DISCID=2c03d304
DTITLE=Arizing - Advance
DYEAR=2003
DGENRE=Southern Rock
TTITLE0=False Semester
TTITLE1=Pinky Swear
TTITLE2=The Big L (Falling in Love Again)
TTITLE3=Sour Patch
EXTD=
EXTT0=
EXTT1=
EXTT2=
EXTT3=
PLAYORDER=
